<?xml version="1.0" encoding="UTF-8" standalone="no"?>
<!-- Created with Inkscape (http://www.inkscape.org/) -->

<svg
   width="191.78658mm"
   height="27.236746mm"
   viewBox="0 0 191.78658 27.236746"
   version="1.1"
   id="svg1"
   xml:space="preserve"
   sodipodi:docname="chx4_addvel.svg"
   inkscape:version="1.3.2 (091e20e, 2023-11-25, custom)"
   xmlns:inkscape="http://www.inkscape.org/namespaces/inkscape"
   xmlns:sodipodi="http://sodipodi.sourceforge.net/DTD/sodipodi-0.dtd"
   xmlns:xlink="http://www.w3.org/1999/xlink"
   xmlns="http://www.w3.org/2000/svg"
   xmlns:svg="http://www.w3.org/2000/svg"><sodipodi:namedview
     id="namedview1"
     pagecolor="#ffffff"
     bordercolor="#000000"
     borderopacity="0.25"
     inkscape:showpageshadow="2"
     inkscape:pageopacity="0.0"
     inkscape:pagecheckerboard="0"
     inkscape:deskcolor="#d1d1d1"
     inkscape:document-units="mm"
     inkscape:zoom="4.1985714"
     inkscape:cx="116.46819"
     inkscape:cy="87.05342"
     inkscape:window-width="1920"
     inkscape:window-height="991"
     inkscape:window-x="1341"
     inkscape:window-y="-9"
     inkscape:window-maximized="1"
     inkscape:current-layer="svg1" /><defs
     id="defs1"><marker
       style="overflow:visible"
       id="ArrowWide"
       refX="0"
       refY="0"
       orient="auto-start-reverse"
       markerWidth="1"
       markerHeight="1"
       viewBox="0 0 1 1"
       preserveAspectRatio="xMidYMid"><path
         style="fill:none;stroke:context-stroke;stroke-width:1;stroke-linecap:butt"
         d="M 3,-3 0,0 3,3"
         transform="rotate(180,0.125,0)"
         id="path3" /></marker><path
       id="MJX-11-TEX-N-2212"
       d="m 84,237 q 0,0 0,13 0,13 14,20 h 581 q 15,-8 15,-20 0,-12 -15,-20 H 98 q -14,7 -14,20 z" /><path
       id="MJX-11-TEX-N-33"
       d="m 127,463 q -27,0 -42,17 -15,17 -16,44 0,55 48,98 48,43 116,43 35,0 44,-1 74,-12 113,-53 39,-41 40,-89 0,-52 -34,-101 -34,-49 -94,-71 l -3,-2 q 0,-1 9,-3 9,-2 29,-9 20,-7 38,-21 82,-53 82,-140 0,-79 -62,-138 -62,-59 -157,-59 -80,0 -138,43 -58,43 -58,109 0,28 18,45 18,17 45,18 28,0 46,-18 18,-18 18,-45 0,-11 -3,-20 -3,-9 -7,-16 -4,-7 -11,-12 -7,-5 -12,-8 -5,-3 -10,-4 -5,-1 -8,-3 l -4,-1 q 51,-45 124,-45 55,0 83,53 17,33 17,101 v 20 q 0,95 -64,127 -15,6 -61,7 l -42,1 -3,2 q -2,3 -2,16 0,18 8,18 28,0 58,5 34,5 62,42 28,37 28,112 v 8 q 0,57 -35,79 -22,14 -47,14 -32,0 -59,-11 -27,-11 -38,-23 -11,-12 -11,-12 h 3 q 3,-1 8,-2 5,-1 10,-5 5,-4 12,-7 7,-3 10,-11 3,-8 8,-15 5,-7 3,-20 0,-22 -14,-39 -14,-17 -45,-18 z" /><path
       id="MJX-11-TEX-N-34"
       d="M 462,0 Q 444,3 333,3 217,3 199,0 h -9 v 46 h 31 q 20,0 27,0 7,0 17,2 10,2 14,5 4,3 7,8 1,2 1,54 v 50 H 28 v 46 l 151,231 q 153,232 155,233 2,2 21,2 h 18 l 6,-6 V 211 h 92 v -46 h -92 v -51 q 0,-41 0,-48 0,-7 6,-12 8,-7 57,-8 h 29 V 0 Z M 293,211 V 545 L 74,212 183,211 Z" /><path
       id="MJX-11-TEX-I-1D450"
       d="m 34,159 q 0,109 86,196 86,87 186,87 56,0 88,-24 32,-24 33,-63 0,-29 -19,-49 -19,-20 -48,-21 -19,0 -30,10 -11,10 -11,30 0,20 11,34 11,14 22,21 11,7 14,6 h 1 q 0,2 -6,6 -6,4 -21,8 -15,4 -34,4 -30,0 -57,-14 -21,-9 -43,-31 -44,-44 -64,-124 -20,-80 -21,-116 0,-46 26,-69 22,-24 58,-24 h 4 q 112,0 185,85 9,10 12,10 4,0 13,-9 9,-9 10,-14 1,-5 -9,-15 Q 410,73 391,55 372,37 346,25 320,13 282,0 244,-13 202,-11 127,-11 81,37 35,85 34,159 Z" /></defs><path
     style="fill:#e30613;stroke:#000000;stroke-width:1;stroke-linecap:round;stroke-dasharray:none;stroke-opacity:1;marker-end:url(#ArrowWide)"
     d="M 32.909795,12.303207 H 66.050198"
     id="path2" /><path
     style="fill:#e30613;stroke:#000000;stroke-width:1;stroke-linecap:round;stroke-dasharray:none;stroke-opacity:1;marker-end:url(#ArrowWide)"
     d="M 158.8768,12.303207 H 125.7364"
     id="path4" /><g
     data-mml-node="math"
     id="g7"
     transform="matrix(0.00957692,0,0,-0.00957692,132.09559,23.932704)"
     style="fill:#000000;stroke:none;stroke-width:104.418;stroke-dasharray:none"><g
       data-mml-node="mo"
       id="g1"
       style="stroke:none;stroke-width:104.418;stroke-dasharray:none"><use
         data-c="2212"
         xlink:href="#MJX-11-TEX-N-2212"
         id="use1"
         style="stroke:none;stroke-width:104.418;stroke-dasharray:none" /></g><g
       data-mml-node="mstyle"
       transform="translate(778)"
       id="g5"
       style="stroke:none;stroke-width:104.418;stroke-dasharray:none"><g
         data-mml-node="mfrac"
         id="g4"
         style="stroke:none;stroke-width:104.418;stroke-dasharray:none"><g
           data-mml-node="mn"
           transform="matrix(0.707,0,0,0.707,220,394)"
           id="g2"
           style="stroke:none;stroke-width:147.691;stroke-dasharray:none"><use
             data-c="33"
             xlink:href="#MJX-11-TEX-N-33"
             id="use2"
             style="stroke:none;stroke-width:147.691;stroke-dasharray:none" /></g><g
           data-mml-node="mn"
           transform="matrix(0.707,0,0,0.707,220,-345)"
           id="g3-9"
           style="stroke:none;stroke-width:147.691;stroke-dasharray:none"><use
             data-c="34"
             xlink:href="#MJX-11-TEX-N-34"
             id="use3"
             style="stroke:none;stroke-width:147.691;stroke-dasharray:none" /></g><rect
           width="553.59998"
           height="60"
           x="120"
           y="220"
           id="rect3"
           style="stroke:none;stroke-width:104.418;stroke-dasharray:none" /></g></g><g
       data-mml-node="mi"
       transform="translate(1571.6)"
       id="g6"
       style="stroke:none;stroke-width:104.418;stroke-dasharray:none"><use
         data-c="1D450"
         xlink:href="#MJX-11-TEX-I-1D450"
         id="use5"
         style="stroke:none;stroke-width:104.418;stroke-dasharray:none" /></g></g><g
     id="g14"
     transform="translate(-21.698817,-18.839489)"
     style="stroke:none;stroke-width:1;stroke-dasharray:none"><g
       data-mml-node="mstyle"
       transform="matrix(0.00957692,0,0,-0.00957692,64.977946,42.772193)"
       id="g12"
       style="fill:#000000;stroke:none;stroke-width:104.418;stroke-dasharray:none"><g
         data-mml-node="mfrac"
         id="g11"
         style="stroke:none;stroke-width:104.418;stroke-dasharray:none"><g
           data-mml-node="mn"
           transform="matrix(0.707,0,0,0.707,220,394)"
           id="g9"
           style="stroke:none;stroke-width:147.691;stroke-dasharray:none"><use
             data-c="33"
             xlink:href="#MJX-11-TEX-N-33"
             id="use9"
             style="stroke:none;stroke-width:147.691;stroke-dasharray:none" /></g><g
           data-mml-node="mn"
           transform="matrix(0.707,0,0,0.707,220,-345)"
           id="g10"
           style="stroke:none;stroke-width:147.691;stroke-dasharray:none"><use
             data-c="34"
             xlink:href="#MJX-11-TEX-N-34"
             id="use10"
             style="stroke:none;stroke-width:147.691;stroke-dasharray:none" /></g><rect
           width="553.59998"
           height="60"
           x="120"
           y="220"
           id="rect10"
           style="stroke:none;stroke-width:104.418;stroke-dasharray:none" /></g></g><g
       data-mml-node="mi"
       transform="matrix(0.00957692,0,0,-0.00957692,72.578189,42.772193)"
       id="g13"
       style="fill:#000000;stroke:none;stroke-width:104.418;stroke-dasharray:none"><use
         data-c="1D450"
         xlink:href="#MJX-11-TEX-I-1D450"
         id="use12"
         style="stroke:none;stroke-width:104.418;stroke-dasharray:none" /></g></g><path
     style="fill:#e03c31;fill-opacity:1;stroke:none;stroke-width:1;stroke-linecap:round;stroke-dasharray:none;stroke-opacity:1"
     d="m 16.137243,6.260894 c -0.64021,-1.12085 -1.42959,-2.15806 -2.14671,-3.23309 -0.4891,-0.67158 -0.92313,-1.39245 -1.46718,-2.01945 -0.37712,-0.0752 -0.73704,0.22514 -1.1033,0.31127 -1.21984,0.47899 -2.4728,0.89538 -3.66924,1.42197 -0.24308,0.28513 0.13019,0.63987 0.17881,0.93995 0.58606,1.47564 1.16764,2.95327 1.76959,4.42247 0.25896,0.29869 0.6433,-0.0701 0.94217,-0.12448 1.74267,-0.66846 3.54809,-1.08644 5.36495,-1.46656 0.0795,-0.0678 0.16156,-0.13481 0.13091,-0.25208 z"
     id="path456" /><path
     style="fill:#e03c31;fill-opacity:1;stroke:none;stroke-width:1;stroke-linecap:round;stroke-dasharray:none;stroke-opacity:1"
     d="m 16.116283,18.192054 c -0.31483,-0.25965 -0.78941,-0.20357 -1.16795,-0.32873 -1.69293,-0.34179 -3.35834,-0.86759 -4.98239,-1.47976 -0.38642,-0.0142 -0.36792,0.52493 -0.53403,0.76952 -0.58734,1.49757 -1.23315,2.97732 -1.75247,4.49878 0.0726,0.35621 0.55023,0.34277 0.80694,0.51075 1.31348,0.5124 2.63473,1.03345 3.95776,1.5031 0.34653,-0.0552 0.43473,-0.5302 0.66537,-0.7639 1.00599,-1.51806 2.07643,-2.99957 3.02657,-4.55123 -0.007,-0.0528 -0.0131,-0.10569 -0.0199,-0.15853 z"
     id="path457" /><path
     style="fill:#d3d3d3;fill-opacity:1;stroke:none;stroke-width:1;stroke-linecap:round;stroke-dasharray:none;stroke-opacity:1"
     d="m 32.035793,12.183154 c -2.1807,-3.1078 -5.8592,-4.91704 -9.57507,-5.34988 -4.3543,-0.51388 -8.79869,0.33733 -12.81183,2.04273 -0.25473,0.25688 -0.0824,0.69151 -0.14598,1.01644 -0.006,1.898 -0.0227,3.8069 0.0316,5.6979 0.2011,0.29606 0.65605,0.31881 0.96835,0.48987 4.25869,1.63754 8.97335,2.36596 13.48186,1.43279 3.13924,-0.66003 6.09188,-2.39083 7.99502,-5.00062 0.0795,-0.087 0.12567,-0.22336 0.056,-0.32923 z m -5.768,0.17315 c 0.002,1.3761 -1.25486,2.60817 -2.64063,2.52122 -1.30204,0.0463 -2.51326,-1.11331 -2.53223,-2.42514 -0.15643,-1.3428 0.99261,-2.65181 2.33768,-2.71913 1.12777,-0.11099 2.32039,0.56775 2.66272,1.67445 0.1091,0.30359 0.17447,0.62527 0.17246,0.9486 z"
     id="path455" /><path
     style="fill:none;fill-opacity:1;stroke:#000000;stroke-width:0.999997;stroke-linecap:round;stroke-dasharray:none;stroke-opacity:1"
     d="m 9.259773,8.791394 c 7.38841,-3.28625 17.99265,-3.96039 23.15002,3.51182"
     id="path449" /><path
     style="fill:none;fill-opacity:1;stroke:#000000;stroke-width:0.999997;stroke-linecap:round;stroke-dasharray:none;stroke-opacity:1"
     d="m 9.259773,15.815044 c 7.38841,3.28624 17.99265,3.96039 23.15002,-3.51183"
     id="path450" /><path
     style="fill:none;fill-opacity:1;stroke:#000000;stroke-width:0.999997;stroke-linecap:round;stroke-dasharray:none;stroke-opacity:1"
     d="m 9.259773,8.791394 v 7.02365"
     id="path451" /><path
     style="fill:none;fill-opacity:1;stroke:#000000;stroke-width:0.999997;stroke-linecap:round;stroke-dasharray:none;stroke-opacity:1"
     d="m 16.713843,6.621774 -4.0707,-6.01395 -5.37668,2.04099 2.36724,5.93674"
     id="path452" /><path
     style="fill:none;fill-opacity:1;stroke:#000000;stroke-width:0.999997;stroke-linecap:round;stroke-dasharray:none;stroke-opacity:1"
     d="m 16.713843,17.984624 -4.0707,6.01395 -5.37668,-2.04099 2.36724,-5.93674"
     id="path453" /><path
     style="fill:#d3d3d3;fill-opacity:1;stroke:#f3c600;stroke-width:0.999997;stroke-linecap:round;stroke-dasharray:none;stroke-opacity:1"
     d="M 7.631128,10.286862 2.680068,8.637572"
     id="path458" /><path
     style="fill:#d3d3d3;fill-opacity:1;stroke:#f3c600;stroke-width:0.999997;stroke-linecap:round;stroke-dasharray:none;stroke-opacity:1"
     d="m 5.418208,10.732352 -4.91821,-0.66645"
     id="path460" /><path
     style="fill:#d3d3d3;fill-opacity:1;stroke:#f3c600;stroke-width:0.999997;stroke-linecap:round;stroke-dasharray:none;stroke-opacity:1"
     d="m 7.631128,14.319552 -4.95106,1.6493"
     id="path461" /><path
     style="fill:#d3d3d3;fill-opacity:1;stroke:#f3c600;stroke-width:0.999997;stroke-linecap:round;stroke-dasharray:none;stroke-opacity:1"
     d="m 5.418208,13.874062 -4.91821,0.66646"
     id="path462" /><path
     style="opacity:0.395577;fill:#d3d3d3;fill-opacity:1;stroke:#f34c00;stroke-width:0.999997;stroke-linecap:round;stroke-dasharray:none;stroke-opacity:1"
     d="m 5.418208,10.732352 -4.91821,-0.66645"
     id="path463" /><path
     style="opacity:0.395577;fill:#d3d3d3;fill-opacity:1;stroke:#f34c00;stroke-width:0.999997;stroke-linecap:round;stroke-dasharray:none;stroke-opacity:1"
     d="m 5.418208,13.874062 -4.91821,0.66646"
     id="path464" /><path
     style="fill:#f3c600;fill-opacity:1;stroke:none;stroke-width:1;stroke-linecap:round;stroke-dasharray:none;stroke-opacity:1"
     d="m 175.64934,6.260902 c 0.64021,-1.12085 1.42959,-2.15806 2.14671,-3.23309 0.4891,-0.67158 0.92313,-1.39245 1.46718,-2.01945 0.37712,-0.0752 0.73704,0.22514 1.1033,0.31127 1.21984,0.47899 2.4728,0.89538 3.66924,1.42197 0.24308,0.28513 -0.13019,0.63987 -0.17881,0.93995 -0.58606,1.47564 -1.16764,2.95327 -1.76959,4.42247 -0.25896,0.29869 -0.6433,-0.0701 -0.94217,-0.12448 -1.74267,-0.66846 -3.54809,-1.08644 -5.36495,-1.46656 -0.0795,-0.0678 -0.16156,-0.13481 -0.13091,-0.25208 z"
     id="path61" /><path
     style="fill:#f3c600;fill-opacity:1;stroke:none;stroke-width:1;stroke-linecap:round;stroke-dasharray:none;stroke-opacity:1"
     d="m 175.6703,18.192062 c 0.31483,-0.25965 0.78941,-0.20357 1.16795,-0.32873 1.69293,-0.34179 3.35834,-0.86759 4.98239,-1.47976 0.38642,-0.0142 0.36792,0.52493 0.53403,0.76952 0.58734,1.49757 1.23315,2.97732 1.75247,4.49878 -0.0726,0.35621 -0.55023,0.34277 -0.80694,0.51075 -1.31348,0.5124 -2.63473,1.03345 -3.95776,1.5031 -0.34653,-0.0552 -0.43473,-0.5302 -0.66537,-0.7639 -1.00599,-1.51806 -2.07643,-2.99957 -3.02657,-4.55123 0.007,-0.0528 0.0131,-0.10569 0.0199,-0.15853 z"
     id="path62" /><path
     style="fill:#d3d3d3;fill-opacity:1;stroke:none;stroke-width:1;stroke-linecap:round;stroke-dasharray:none;stroke-opacity:1"
     d="m 159.75079,12.183162 c 2.1807,-3.1078 5.8592,-4.91704 9.57507,-5.34988 4.3543,-0.51388 8.79869,0.33733 12.81183,2.04273 0.25473,0.25688 0.0824,0.69151 0.14598,1.01644 0.006,1.898 0.0227,3.8069 -0.0316,5.6979 -0.2011,0.29606 -0.65605,0.31881 -0.96835,0.48987 -4.25869,1.63754 -8.97335,2.36596 -13.48186,1.43279 -3.13924,-0.66003 -6.09188,-2.39083 -7.99502,-5.00062 -0.0795,-0.087 -0.12567,-0.22336 -0.056,-0.32923 z m 5.768,0.17315 c -0.002,1.3761 1.25486,2.60817 2.64063,2.52122 1.30204,0.0463 2.51326,-1.11331 2.53223,-2.42514 0.15643,-1.3428 -0.99261,-2.65181 -2.33768,-2.71913 -1.12777,-0.11099 -2.32039,0.56775 -2.66272,1.67445 -0.1091,0.30359 -0.17447,0.62527 -0.17246,0.9486 z"
     id="path63" /><path
     style="fill:none;fill-opacity:1;stroke:#000000;stroke-width:0.999997;stroke-linecap:round;stroke-dasharray:none;stroke-opacity:1"
     d="m 182.52681,8.791402 c -7.38841,-3.28625 -17.99265,-3.96039 -23.15002,3.51182"
     id="path64" /><path
     style="fill:none;fill-opacity:1;stroke:#000000;stroke-width:0.999997;stroke-linecap:round;stroke-dasharray:none;stroke-opacity:1"
     d="m 182.52681,15.815052 c -7.38841,3.28624 -17.99265,3.96039 -23.15002,-3.51183"
     id="path65" /><path
     style="fill:none;fill-opacity:1;stroke:#000000;stroke-width:0.999997;stroke-linecap:round;stroke-dasharray:none;stroke-opacity:1"
     d="m 182.52681,8.791402 v 7.02365"
     id="path66" /><path
     style="fill:none;fill-opacity:1;stroke:#000000;stroke-width:0.999997;stroke-linecap:round;stroke-dasharray:none;stroke-opacity:1"
     d="m 175.07274,6.621782 4.0707,-6.01395 5.37668,2.04099 -2.36724,5.93674"
     id="path67" /><path
     style="fill:none;fill-opacity:1;stroke:#000000;stroke-width:0.999997;stroke-linecap:round;stroke-dasharray:none;stroke-opacity:1"
     d="m 175.07274,17.984632 4.0707,6.01395 5.37668,-2.04099 -2.36724,-5.93674"
     id="path68" /><ellipse
     style="fill:none;fill-opacity:1;stroke:#000000;stroke-width:0.999997;stroke-linecap:round;stroke-dasharray:none;stroke-opacity:1"
     id="ellipse68"
     cx="12.303215"
     cy="168.11717"
     rx="2.374218"
     ry="2.375747"
     transform="matrix(0,1,1,0,0,0)" /><path
     style="fill:#d3d3d3;fill-opacity:1;stroke:#f3c600;stroke-width:0.999997;stroke-linecap:round;stroke-dasharray:none;stroke-opacity:1"
     d="m 184.15545,10.28687 4.95106,-1.64929"
     id="path69" /><path
     style="fill:#d3d3d3;fill-opacity:1;stroke:#f3c600;stroke-width:0.999997;stroke-linecap:round;stroke-dasharray:none;stroke-opacity:1"
     d="m 186.36837,10.73236 4.91821,-0.66645"
     id="path70" /><path
     style="fill:#d3d3d3;fill-opacity:1;stroke:#f3c600;stroke-width:0.999997;stroke-linecap:round;stroke-dasharray:none;stroke-opacity:1"
     d="m 184.15545,14.31956 4.95106,1.6493"
     id="path71" /><path
     style="fill:#d3d3d3;fill-opacity:1;stroke:#f3c600;stroke-width:0.999997;stroke-linecap:round;stroke-dasharray:none;stroke-opacity:1"
     d="m 186.36837,13.87407 4.91821,0.66646"
     id="path72" /><path
     style="opacity:0.395577;fill:#d3d3d3;fill-opacity:1;stroke:#f34c00;stroke-width:0.999997;stroke-linecap:round;stroke-dasharray:none;stroke-opacity:1"
     d="m 186.36837,10.73236 4.91821,-0.66645"
     id="path73" /><path
     style="opacity:0.395577;fill:#d3d3d3;fill-opacity:1;stroke:#f34c00;stroke-width:0.999997;stroke-linecap:round;stroke-dasharray:none;stroke-opacity:1"
     d="m 186.36837,13.87407 4.91821,0.66646"
     id="path74" /><path
     style="fill:#000000;stroke:#000000;stroke-width:0.5;stroke-opacity:1;stroke-dasharray:none"
     d="M 9.2655477,12.915079 20.174421,6.7463707"
     id="path1" /><path
     style="fill:#000000;stroke:#000000;stroke-width:0.5;stroke-opacity:1;stroke-dasharray:none"
     d="M 9.4694606,10.275771 15.119996,7.0805271"
     id="path1-1" /><path
     style="fill:#000000;stroke:#000000;stroke-width:0.5;stroke-opacity:1;stroke-dasharray:none"
     d="M 9.502708,15.643143 24.557891,7.2309639"
     id="path1-9" /><path
     style="fill:#000000;stroke:#000000;stroke-width:0.5;stroke-opacity:1;stroke-dasharray:none"
     d="m 12.83229,17.014227 8.268517,-4.620086"
     id="path1-9-9" /><path
     style="fill:#000000;stroke:#000000;stroke-width:0.5;stroke-opacity:1;stroke-dasharray:none"
     d="m 16.501219,17.802566 5.84026,-3.263282"
     id="path1-9-9-1" /><path
     style="fill:#000000;stroke:#000000;stroke-width:0.5;stroke-opacity:1;stroke-dasharray:none"
     d="m 21.907105,17.733352 10.01188,-5.594201"
     id="path1-9-9-1-9" /><path
     style="fill:#000000;stroke:#000000;stroke-width:0.5;stroke-opacity:1;stroke-dasharray:none"
     d="M 25.847999,12.631298 30.816577,9.855073"
     id="path1-9-9-1-9-6" /><path
     style="fill:#000000;stroke:#000000;stroke-width:0.5;stroke-dasharray:none;stroke-opacity:1"
     d="M 24.701447,10.476264 28.284679,8.47411"
     id="path1-9-9-1-9-6-0" /><ellipse
     style="fill:none;fill-opacity:1;stroke:#000000;stroke-width:0.999997;stroke-linecap:round;stroke-dasharray:none;stroke-opacity:1"
     id="path454"
     cx="12.303207"
     cy="-23.66942"
     rx="2.374218"
     ry="2.375747"
     transform="rotate(90)" /></svg>
