<?xml version="1.0" encoding="UTF-8" standalone="no"?>
<svg
   width="576pt"
   height="432pt"
   viewBox="0 0 576 432"
   version="1.1"
   id="svg76"
   sodipodi:docname="chx6_gamma_v.svg"
   inkscape:version="1.3.2 (091e20e, 2023-11-25, custom)"
   xmlns:inkscape="http://www.inkscape.org/namespaces/inkscape"
   xmlns:sodipodi="http://sodipodi.sourceforge.net/DTD/sodipodi-0.dtd"
   xmlns:xlink="http://www.w3.org/1999/xlink"
   xmlns="http://www.w3.org/2000/svg"
   xmlns:svg="http://www.w3.org/2000/svg"
   xmlns:rdf="http://www.w3.org/1999/02/22-rdf-syntax-ns#"
   xmlns:cc="http://creativecommons.org/ns#"
   xmlns:dc="http://purl.org/dc/elements/1.1/">
  <sodipodi:namedview
     id="namedview76"
     pagecolor="#ffffff"
     bordercolor="#000000"
     borderopacity="0.25"
     inkscape:showpageshadow="2"
     inkscape:pageopacity="0.0"
     inkscape:pagecheckerboard="0"
     inkscape:deskcolor="#d1d1d1"
     inkscape:document-units="pt"
     inkscape:zoom="1.3489583"
     inkscape:cx="384"
     inkscape:cy="288"
     inkscape:window-width="1920"
     inkscape:window-height="991"
     inkscape:window-x="1341"
     inkscape:window-y="-9"
     inkscape:window-maximized="1"
     inkscape:current-layer="figure_1" />
  <metadata
     id="metadata1">
    <rdf:RDF>
      <cc:Work>
        <dc:type
           rdf:resource="http://purl.org/dc/dcmitype/StillImage" />
        <dc:date>2025-07-14T12:47:31.395317</dc:date>
        <dc:format>image/svg+xml</dc:format>
        <dc:creator>
          <cc:Agent>
            <dc:title>Matplotlib v3.8.4, https://matplotlib.org/</dc:title>
          </cc:Agent>
        </dc:creator>
      </cc:Work>
    </rdf:RDF>
  </metadata>
  <defs
     id="defs1">
    <style
       type="text/css"
       id="style1">*{stroke-linejoin: round; stroke-linecap: butt}</style>
  </defs>
  <g
     id="figure_1">
    <g
       id="patch_1">
      <path
         d="M 0 432  L 576 432  L 576 0  L 0 0  z "
         style="fill: #ffffff"
         id="path1" />
    </g>
    <g
       id="axes_1">
      <g
         id="patch_2">
        <path
           d="M 72 384.48  L 518.4 384.48  L 518.4 51.84  L 72 51.84  z "
           style="fill: #ffffff"
           id="path2" />
      </g>
      <g
         id="xtick_1">
        <g
           id="line2d_1">
          <path
             d="M 72,384.48 V 51.84"
             clip-path="url(#pe1eda29759)"
             style="fill:none;stroke:#b0b0b0;stroke-width:0.8;stroke-linecap:square"
             id="path3" />
        </g>
        <g
           id="line2d_2">
          <defs
             id="defs3">
            <path
               id="m6505f40a89"
               d="M 0,0 V 3.5"
               style="stroke:#000000;stroke-width:0.8" />
          </defs>
          <g
             id="g3">
            <use
               xlink:href="#m6505f40a89"
               x="72"
               y="384.48001"
               style="stroke:#000000;stroke-width:0.8"
               id="use3" />
          </g>
        </g>
        <g
           id="text_1">
          <!-- 0.0 -->
          <g
             transform="matrix(0.1,0,0,-0.1,64.048438,399.07844)"
             id="g6">
            <defs
               id="defs4">
              <path
                 id="DejaVuSans-30"
                 d="m 2034,4250 q -487,0 -733,-480 -245,-479 -245,-1442 0,-959 245,-1439 246,-480 733,-480 491,0 736,480 246,480 246,1439 0,963 -246,1442 -245,480 -736,480 z m 0,500 q 785,0 1199,-621 414,-620 414,-1801 0,-1178 -414,-1799 -414,-620 -1199,-620 -784,0 -1198,620 -414,621 -414,1799 0,1181 414,1801 414,621 1198,621 z"
                 transform="scale(0.015625)" />
              <path
                 id="DejaVuSans-2e"
                 d="m 684,794 h 660 V 0 H 684 Z"
                 transform="scale(0.015625)" />
            </defs>
            <use
               xlink:href="#DejaVuSans-30"
               id="use4" />
            <use
               xlink:href="#DejaVuSans-2e"
               x="63.623047"
               id="use5" />
            <use
               xlink:href="#DejaVuSans-30"
               x="95.410156"
               id="use6" />
          </g>
        </g>
      </g>
      <g
         id="xtick_2">
        <g
           id="line2d_3">
          <path
             d="M 153.16364,384.48 V 51.84"
             clip-path="url(#pe1eda29759)"
             style="fill:none;stroke:#b0b0b0;stroke-width:0.8;stroke-linecap:square"
             id="path6" />
        </g>
        <g
           id="line2d_4">
          <g
             id="g7">
            <use
               xlink:href="#m6505f40a89"
               x="153.16364"
               y="384.48001"
               style="stroke:#000000;stroke-width:0.8"
               id="use7" />
          </g>
        </g>
        <g
           id="text_2">
          <!-- 0.2 -->
          <g
             transform="matrix(0.1,0,0,-0.1,145.21207,399.07844)"
             id="g10">
            <defs
               id="defs7">
              <path
                 id="DejaVuSans-32"
                 d="M 1228,531 H 3431 V 0 H 469 v 531 q 359,372 979,998 621,627 780,809 303,340 423,576 121,236 121,464 0,372 -261,606 -261,235 -680,235 -297,0 -627,-103 -329,-103 -704,-313 v 638 q 381,153 712,231 332,78 607,78 725,0 1156,-363 431,-362 431,-968 0,-288 -108,-546 -107,-257 -392,-607 -78,-91 -497,-524 Q 1991,1309 1228,531 Z"
                 transform="scale(0.015625)" />
            </defs>
            <use
               xlink:href="#DejaVuSans-30"
               id="use8" />
            <use
               xlink:href="#DejaVuSans-2e"
               x="63.623047"
               id="use9" />
            <use
               xlink:href="#DejaVuSans-32"
               x="95.410156"
               id="use10" />
          </g>
        </g>
      </g>
      <g
         id="xtick_3">
        <g
           id="line2d_5">
          <path
             d="M 234.32727,384.48 V 51.84"
             clip-path="url(#pe1eda29759)"
             style="fill:none;stroke:#b0b0b0;stroke-width:0.8;stroke-linecap:square"
             id="path10" />
        </g>
        <g
           id="line2d_6">
          <g
             id="g11">
            <use
               xlink:href="#m6505f40a89"
               x="234.32727"
               y="384.48001"
               style="stroke:#000000;stroke-width:0.8"
               id="use11" />
          </g>
        </g>
        <g
           id="text_3">
          <!-- 0.4 -->
          <g
             transform="matrix(0.1,0,0,-0.1,226.37571,399.07844)"
             id="g14">
            <defs
               id="defs11">
              <path
                 id="DejaVuSans-34"
                 d="M 2419,4116 825,1625 h 1594 z m -166,550 h 794 V 1625 h 666 V 1100 H 3047 V 0 H 2419 V 1100 H 313 v 609 z"
                 transform="scale(0.015625)" />
            </defs>
            <use
               xlink:href="#DejaVuSans-30"
               id="use12" />
            <use
               xlink:href="#DejaVuSans-2e"
               x="63.623047"
               id="use13" />
            <use
               xlink:href="#DejaVuSans-34"
               x="95.410156"
               id="use14" />
          </g>
        </g>
      </g>
      <g
         id="xtick_4">
        <g
           id="line2d_7">
          <path
             d="M 315.49091,384.48 V 51.84"
             clip-path="url(#pe1eda29759)"
             style="fill:none;stroke:#b0b0b0;stroke-width:0.8;stroke-linecap:square"
             id="path14" />
        </g>
        <g
           id="line2d_8">
          <g
             id="g15">
            <use
               xlink:href="#m6505f40a89"
               x="315.49091"
               y="384.48001"
               style="stroke:#000000;stroke-width:0.8"
               id="use15" />
          </g>
        </g>
        <g
           id="text_4">
          <!-- 0.6 -->
          <g
             transform="matrix(0.1,0,0,-0.1,307.53935,399.07844)"
             id="g18">
            <defs
               id="defs15">
              <path
                 id="DejaVuSans-36"
                 d="m 2113,2584 q -425,0 -674,-291 -248,-290 -248,-796 0,-503 248,-796 249,-292 674,-292 425,0 673,292 248,293 248,796 0,506 -248,796 -248,291 -673,291 z m 1253,1979 v -575 q -238,112 -480,171 -242,60 -480,60 -625,0 -955,-422 -329,-422 -376,-1275 184,272 462,417 279,145 613,145 703,0 1111,-427 408,-426 408,-1160 0,-719 -425,-1154 -425,-434 -1131,-434 -810,0 -1238,620 -428,621 -428,1799 0,1106 525,1764 525,658 1409,658 238,0 480,-47 242,-47 505,-140 z"
                 transform="scale(0.015625)" />
            </defs>
            <use
               xlink:href="#DejaVuSans-30"
               id="use16" />
            <use
               xlink:href="#DejaVuSans-2e"
               x="63.623047"
               id="use17" />
            <use
               xlink:href="#DejaVuSans-36"
               x="95.410156"
               id="use18" />
          </g>
        </g>
      </g>
      <g
         id="xtick_5">
        <g
           id="line2d_9">
          <path
             d="M 396.65454,384.48 V 51.84"
             clip-path="url(#pe1eda29759)"
             style="fill:none;stroke:#b0b0b0;stroke-width:0.8;stroke-linecap:square"
             id="path18" />
        </g>
        <g
           id="line2d_10">
          <g
             id="g19">
            <use
               xlink:href="#m6505f40a89"
               x="396.65454"
               y="384.48001"
               style="stroke:#000000;stroke-width:0.8"
               id="use19" />
          </g>
        </g>
        <g
           id="text_5">
          <!-- 0.8 -->
          <g
             transform="matrix(0.1,0,0,-0.1,388.70298,399.07844)"
             id="g22">
            <defs
               id="defs19">
              <path
                 id="DejaVuSans-38"
                 d="m 2034,2216 q -450,0 -708,-241 -257,-241 -257,-662 0,-422 257,-663 258,-241 708,-241 450,0 709,242 260,243 260,662 0,421 -258,662 -257,241 -711,241 z m -631,268 q -406,100 -633,378 -226,279 -226,679 0,559 398,884 399,325 1092,325 697,0 1094,-325 397,-325 397,-884 0,-400 -227,-679 -226,-278 -629,-378 456,-106 710,-416 255,-309 255,-755 Q 3634,634 3220,271 2806,-91 2034,-91 1263,-91 848,271 434,634 434,1313 q 0,446 256,755 257,310 713,416 z m -231,997 q 0,-362 226,-565 227,-203 636,-203 407,0 636,203 230,203 230,565 0,363 -230,566 -229,203 -636,203 -409,0 -636,-203 -226,-203 -226,-566 z"
                 transform="scale(0.015625)" />
            </defs>
            <use
               xlink:href="#DejaVuSans-30"
               id="use20" />
            <use
               xlink:href="#DejaVuSans-2e"
               x="63.623047"
               id="use21" />
            <use
               xlink:href="#DejaVuSans-38"
               x="95.410156"
               id="use22" />
          </g>
        </g>
      </g>
      <g
         id="xtick_6">
        <g
           id="line2d_11">
          <path
             d="M 477.81818,384.48 V 51.84"
             clip-path="url(#pe1eda29759)"
             style="fill:none;stroke:#b0b0b0;stroke-width:0.8;stroke-linecap:square"
             id="path22" />
        </g>
        <g
           id="line2d_12">
          <g
             id="g23">
            <use
               xlink:href="#m6505f40a89"
               x="477.81818"
               y="384.48001"
               style="stroke:#000000;stroke-width:0.8"
               id="use23" />
          </g>
        </g>
        <g
           id="text_6">
          <!-- 1.0 -->
          <g
             transform="matrix(0.1,0,0,-0.1,469.86662,399.07844)"
             id="g26">
            <defs
               id="defs23">
              <path
                 id="DejaVuSans-31"
                 d="M 794,531 H 1825 V 4091 L 703,3866 v 575 l 1116,225 h 631 V 531 H 3481 V 0 H 794 Z"
                 transform="scale(0.015625)" />
            </defs>
            <use
               xlink:href="#DejaVuSans-31"
               id="use24" />
            <use
               xlink:href="#DejaVuSans-2e"
               x="63.623047"
               id="use25" />
            <use
               xlink:href="#DejaVuSans-30"
               x="95.410156"
               id="use26" />
          </g>
        </g>
      </g>
      <g
         id="text_7"
         transform="matrix(1.379682,0,0,1.379682,-109.39471,-153.94458)">
        <!-- $u/c$ -->
        <g
           transform="matrix(0.1,0,0,-0.1,287.55,412.75656)"
           id="g29">
          <defs
             id="defs26">
            <path
               id="DejaVuSans-Oblique-75"
               d="m 428,1388 410,2112 h 578 L 1006,1409 q -31,-153 -45,-262 -14,-109 -14,-181 0,-266 162,-412 163,-145 460,-145 462,0 799,312 338,313 441,842 l 385,1937 h 575 L 3091,0 h -575 l 115,550 Q 2388,244 2052,76 1716,-91 1338,-91 878,-91 622,161 366,413 366,863 q 0,93 15,234 16,141 47,291 z"
               transform="scale(0.015625)" />
            <path
               id="DejaVuSans-2f"
               d="m 1625,4666 h 531 L 531,-594 H 0 Z"
               transform="scale(0.015625)" />
            <path
               id="DejaVuSans-Oblique-63"
               d="m 3431,3366 -115,-569 q -207,150 -440,225 -232,75 -482,75 -275,0 -524,-97 -248,-97 -417,-275 -269,-272 -416,-638 -146,-365 -146,-756 0,-472 236,-703 236,-231 717,-231 237,0 504,72 268,72 558,215 L 2797,116 Q 2547,13 2283,-39 2019,-91 1741,-91 1044,-91 669,257 294,606 294,1253 q 0,544 195,1002 195,458 580,823 262,250 615,378 354,128 772,128 244,0 484,-55 241,-54 491,-163 z"
               transform="scale(0.015625)" />
          </defs>
          <use
             xlink:href="#DejaVuSans-Oblique-75"
             transform="translate(0,0.09375)"
             id="use27" />
          <use
             xlink:href="#DejaVuSans-2f"
             transform="translate(63.378906,0.09375)"
             id="use28" />
          <use
             xlink:href="#DejaVuSans-Oblique-63"
             transform="translate(97.070312,0.09375)"
             id="use29" />
        </g>
      </g>
      <g
         id="matplotlib.axis_2">
        <g
           id="ytick_1">
          <g
             id="line2d_13">
            <path
               d="M 72 384.48  L 518.4 384.48  "
               clip-path="url(#pe1eda29759)"
               style="fill: none; stroke: #b0b0b0; stroke-width: 0.8; stroke-linecap: square"
               id="path29" />
          </g>
          <g
             id="line2d_14">
            <defs
               id="defs29">
              <path
                 id="m4786b143d4"
                 d="M 0 0  L -3.5 0  "
                 style="stroke: #000000; stroke-width: 0.8" />
            </defs>
            <g
               id="g30">
              <use
                 xlink:href="#m4786b143d4"
                 x="72"
                 y="384.48"
                 style="stroke: #000000; stroke-width: 0.8"
                 id="use30" />
            </g>
          </g>
          <g
             id="text_8">
            <!-- 0.0 -->
            <g
               transform="translate(49.096875 388.279219) scale(0.1 -0.1)"
               id="g33">
              <use
                 xlink:href="#DejaVuSans-30"
                 id="use31" />
              <use
                 xlink:href="#DejaVuSans-2e"
                 x="63.623047"
                 id="use32" />
              <use
                 xlink:href="#DejaVuSans-30"
                 x="95.410156"
                 id="use33" />
            </g>
          </g>
        </g>
        <g
           id="ytick_2">
          <g
             id="line2d_15">
            <path
               d="M 72 342.9  L 518.4 342.9  "
               clip-path="url(#pe1eda29759)"
               style="fill: none; stroke: #b0b0b0; stroke-width: 0.8; stroke-linecap: square"
               id="path33" />
          </g>
          <g
             id="line2d_16">
            <g
               id="g34">
              <use
                 xlink:href="#m4786b143d4"
                 x="72"
                 y="342.9"
                 style="stroke: #000000; stroke-width: 0.8"
                 id="use34" />
            </g>
          </g>
          <g
             id="text_9">
            <!-- 2.5 -->
            <g
               transform="translate(49.096875 346.699219) scale(0.1 -0.1)"
               id="g37">
              <defs
                 id="defs34">
                <path
                   id="DejaVuSans-35"
                   d="M 691 4666  L 3169 4666  L 3169 4134  L 1269 4134  L 1269 2991  Q 1406 3038 1543 3061  Q 1681 3084 1819 3084  Q 2600 3084 3056 2656  Q 3513 2228 3513 1497  Q 3513 744 3044 326  Q 2575 -91 1722 -91  Q 1428 -91 1123 -41  Q 819 9 494 109  L 494 744  Q 775 591 1075 516  Q 1375 441 1709 441  Q 2250 441 2565 725  Q 2881 1009 2881 1497  Q 2881 1984 2565 2268  Q 2250 2553 1709 2553  Q 1456 2553 1204 2497  Q 953 2441 691 2322  L 691 4666  z "
                   transform="scale(0.015625)" />
              </defs>
              <use
                 xlink:href="#DejaVuSans-32"
                 id="use35" />
              <use
                 xlink:href="#DejaVuSans-2e"
                 x="63.623047"
                 id="use36" />
              <use
                 xlink:href="#DejaVuSans-35"
                 x="95.410156"
                 id="use37" />
            </g>
          </g>
        </g>
        <g
           id="ytick_3">
          <g
             id="line2d_17">
            <path
               d="M 72 301.32  L 518.4 301.32  "
               clip-path="url(#pe1eda29759)"
               style="fill: none; stroke: #b0b0b0; stroke-width: 0.8; stroke-linecap: square"
               id="path37" />
          </g>
          <g
             id="line2d_18">
            <g
               id="g38">
              <use
                 xlink:href="#m4786b143d4"
                 x="72"
                 y="301.32"
                 style="stroke: #000000; stroke-width: 0.8"
                 id="use38" />
            </g>
          </g>
          <g
             id="text_10">
            <!-- 5.0 -->
            <g
               transform="translate(49.096875 305.119219) scale(0.1 -0.1)"
               id="g41">
              <use
                 xlink:href="#DejaVuSans-35"
                 id="use39" />
              <use
                 xlink:href="#DejaVuSans-2e"
                 x="63.623047"
                 id="use40" />
              <use
                 xlink:href="#DejaVuSans-30"
                 x="95.410156"
                 id="use41" />
            </g>
          </g>
        </g>
        <g
           id="ytick_4">
          <g
             id="line2d_19">
            <path
               d="M 72 259.74  L 518.4 259.74  "
               clip-path="url(#pe1eda29759)"
               style="fill: none; stroke: #b0b0b0; stroke-width: 0.8; stroke-linecap: square"
               id="path41" />
          </g>
          <g
             id="line2d_20">
            <g
               id="g42">
              <use
                 xlink:href="#m4786b143d4"
                 x="72"
                 y="259.74"
                 style="stroke: #000000; stroke-width: 0.8"
                 id="use42" />
            </g>
          </g>
          <g
             id="text_11">
            <!-- 7.5 -->
            <g
               transform="translate(49.096875 263.539219) scale(0.1 -0.1)"
               id="g45">
              <defs
                 id="defs42">
                <path
                   id="DejaVuSans-37"
                   d="M 525 4666  L 3525 4666  L 3525 4397  L 1831 0  L 1172 0  L 2766 4134  L 525 4134  L 525 4666  z "
                   transform="scale(0.015625)" />
              </defs>
              <use
                 xlink:href="#DejaVuSans-37"
                 id="use43" />
              <use
                 xlink:href="#DejaVuSans-2e"
                 x="63.623047"
                 id="use44" />
              <use
                 xlink:href="#DejaVuSans-35"
                 x="95.410156"
                 id="use45" />
            </g>
          </g>
        </g>
        <g
           id="ytick_5">
          <g
             id="line2d_21">
            <path
               d="M 72 218.16  L 518.4 218.16  "
               clip-path="url(#pe1eda29759)"
               style="fill: none; stroke: #b0b0b0; stroke-width: 0.8; stroke-linecap: square"
               id="path45" />
          </g>
          <g
             id="line2d_22">
            <g
               id="g46">
              <use
                 xlink:href="#m4786b143d4"
                 x="72"
                 y="218.16"
                 style="stroke: #000000; stroke-width: 0.8"
                 id="use46" />
            </g>
          </g>
          <g
             id="text_12">
            <!-- 10.0 -->
            <g
               transform="translate(42.734375 221.959219) scale(0.1 -0.1)"
               id="g50">
              <use
                 xlink:href="#DejaVuSans-31"
                 id="use47" />
              <use
                 xlink:href="#DejaVuSans-30"
                 x="63.623047"
                 id="use48" />
              <use
                 xlink:href="#DejaVuSans-2e"
                 x="127.246094"
                 id="use49" />
              <use
                 xlink:href="#DejaVuSans-30"
                 x="159.033203"
                 id="use50" />
            </g>
          </g>
        </g>
        <g
           id="ytick_6">
          <g
             id="line2d_23">
            <path
               d="M 72 176.58  L 518.4 176.58  "
               clip-path="url(#pe1eda29759)"
               style="fill: none; stroke: #b0b0b0; stroke-width: 0.8; stroke-linecap: square"
               id="path50" />
          </g>
          <g
             id="line2d_24">
            <g
               id="g51">
              <use
                 xlink:href="#m4786b143d4"
                 x="72"
                 y="176.58"
                 style="stroke: #000000; stroke-width: 0.8"
                 id="use51" />
            </g>
          </g>
          <g
             id="text_13">
            <!-- 12.5 -->
            <g
               transform="translate(42.734375 180.379219) scale(0.1 -0.1)"
               id="g55">
              <use
                 xlink:href="#DejaVuSans-31"
                 id="use52" />
              <use
                 xlink:href="#DejaVuSans-32"
                 x="63.623047"
                 id="use53" />
              <use
                 xlink:href="#DejaVuSans-2e"
                 x="127.246094"
                 id="use54" />
              <use
                 xlink:href="#DejaVuSans-35"
                 x="159.033203"
                 id="use55" />
            </g>
          </g>
        </g>
        <g
           id="ytick_7">
          <g
             id="line2d_25">
            <path
               d="M 72 135  L 518.4 135  "
               clip-path="url(#pe1eda29759)"
               style="fill: none; stroke: #b0b0b0; stroke-width: 0.8; stroke-linecap: square"
               id="path55" />
          </g>
          <g
             id="line2d_26">
            <g
               id="g56">
              <use
                 xlink:href="#m4786b143d4"
                 x="72"
                 y="135"
                 style="stroke: #000000; stroke-width: 0.8"
                 id="use56" />
            </g>
          </g>
          <g
             id="text_14">
            <!-- 15.0 -->
            <g
               transform="translate(42.734375 138.799219) scale(0.1 -0.1)"
               id="g60">
              <use
                 xlink:href="#DejaVuSans-31"
                 id="use57" />
              <use
                 xlink:href="#DejaVuSans-35"
                 x="63.623047"
                 id="use58" />
              <use
                 xlink:href="#DejaVuSans-2e"
                 x="127.246094"
                 id="use59" />
              <use
                 xlink:href="#DejaVuSans-30"
                 x="159.033203"
                 id="use60" />
            </g>
          </g>
        </g>
        <g
           id="ytick_8">
          <g
             id="line2d_27">
            <path
               d="M 72 93.42  L 518.4 93.42  "
               clip-path="url(#pe1eda29759)"
               style="fill: none; stroke: #b0b0b0; stroke-width: 0.8; stroke-linecap: square"
               id="path60" />
          </g>
          <g
             id="line2d_28">
            <g
               id="g61">
              <use
                 xlink:href="#m4786b143d4"
                 x="72"
                 y="93.42"
                 style="stroke: #000000; stroke-width: 0.8"
                 id="use61" />
            </g>
          </g>
          <g
             id="text_15">
            <!-- 17.5 -->
            <g
               transform="translate(42.734375 97.219219) scale(0.1 -0.1)"
               id="g65">
              <use
                 xlink:href="#DejaVuSans-31"
                 id="use62" />
              <use
                 xlink:href="#DejaVuSans-37"
                 x="63.623047"
                 id="use63" />
              <use
                 xlink:href="#DejaVuSans-2e"
                 x="127.246094"
                 id="use64" />
              <use
                 xlink:href="#DejaVuSans-35"
                 x="159.033203"
                 id="use65" />
            </g>
          </g>
        </g>
        <g
           id="ytick_9">
          <g
             id="line2d_29">
            <path
               d="M 72 51.84  L 518.4 51.84  "
               clip-path="url(#pe1eda29759)"
               style="fill: none; stroke: #b0b0b0; stroke-width: 0.8; stroke-linecap: square"
               id="path65" />
          </g>
          <g
             id="line2d_30">
            <g
               id="g66">
              <use
                 xlink:href="#m4786b143d4"
                 x="72"
                 y="51.84"
                 style="stroke: #000000; stroke-width: 0.8"
                 id="use66" />
            </g>
          </g>
          <g
             id="text_16">
            <!-- 20.0 -->
            <g
               transform="translate(42.734375 55.639219) scale(0.1 -0.1)"
               id="g70">
              <use
                 xlink:href="#DejaVuSans-32"
                 id="use67" />
              <use
                 xlink:href="#DejaVuSans-30"
                 x="63.623047"
                 id="use68" />
              <use
                 xlink:href="#DejaVuSans-2e"
                 x="127.246094"
                 id="use69" />
              <use
                 xlink:href="#DejaVuSans-30"
                 x="159.033203"
                 id="use70" />
            </g>
          </g>
        </g>
        <g
           id="text_17"
           transform="matrix(1.3247775,0,0,1.3247775,-10.111744,-69.764439)">
          <!-- $\gamma$ -->
          <g
             transform="matrix(0,-0.1,-0.1,0,36.634375,221.16)"
             id="g71">
            <defs
               id="defs70">
              <path
                 id="DejaVuSans-Oblique-3b3"
                 d="M 1491,2950 1838,788 3456,3500 h 610 L 1972,0 1713,-1331 H 1138 L 1397,0 988,2613 q -63,393 -360,393 H 475 l 94,494 h 219 q 615,0 703,-550 z"
                 transform="scale(0.015625)" />
            </defs>
            <use
               xlink:href="#DejaVuSans-Oblique-3b3"
               transform="translate(0,0.3125)"
               id="use71" />
          </g>
        </g>
      </g>
      <g
         id="line2d_31">
        <path
           d="M 72 367.848  L 118.715807 367.736693  L 162.994267 367.413444  L 203.210483 366.903966  L 238.552007 366.241177  L 269.018837 365.455579  L 295.423423 364.556709  L 317.765766 363.579356  L 336.858313 362.528121  L 353.107289 361.419487  L 367.325143 360.23037  L 379.511876 358.99175  L 390.07371 357.698849  L 399.010647 356.393939  L 407.135135 354.98673  L 414.04095 353.57468  L 420.134316 352.114911  L 425.821458 350.51871  L 430.696151 348.91923  L 435.164619 347.211664  L 438.820639 345.596165  L 442.476658 343.730715  L 445.726454 341.806434  L 448.570025 339.861437  L 451.007371 337.949852  L 453.444717 335.754371  L 455.475839 333.653264  L 457.506962 331.240927  L 459.538084 328.432972  L 461.162981 325.822625  L 462.787879 322.796316  L 464.412776 319.231322  L 465.63145 316.098789  L 466.850123 312.454751  L 468.068796 308.143759  L 469.287469 302.935067  L 470.506143 296.468157  L 471.318591 291.176454  L 472.13104 284.784602  L 472.943489 276.850897  L 473.755938 266.637547  L 474.568387 252.794356  L 475.380835 232.498869  L 475.78706 218.034786  L 476.193284 198.435262  L 476.599509 169.707888  L 477.005733 121.504858  L 477.411957 12.670115  L 477.411957 12.670115  "
           clip-path="url(#pe1eda29759)"
           style="fill: none; stroke: #0000ff; stroke-width: 1.5; stroke-linecap: square"
           id="path71" />
      </g>
      <g
         id="LineCollection_1">
        <path
           d="M 477.818182 384.48  L 477.818182 51.84  "
           clip-path="url(#pe1eda29759)"
           style="fill: none; stroke: #ff0000; stroke-width: 1.5"
           id="path72" />
      </g>
      <g
         id="patch_3">
        <path
           d="M 72 384.48  L 72 51.84  "
           style="fill: none; stroke: #000000; stroke-width: 0.8; stroke-linejoin: miter; stroke-linecap: square"
           id="path73" />
      </g>
      <g
         id="patch_4">
        <path
           d="M 518.4 384.48  L 518.4 51.84  "
           style="fill: none; stroke: #000000; stroke-width: 0.8; stroke-linejoin: miter; stroke-linecap: square"
           id="path74" />
      </g>
      <g
         id="patch_5">
        <path
           d="M 72 384.48  L 518.4 384.48  "
           style="fill: none; stroke: #000000; stroke-width: 0.8; stroke-linejoin: miter; stroke-linecap: square"
           id="path75" />
      </g>
      <g
         id="patch_6">
        <path
           d="M 72 51.84  L 518.4 51.84  "
           style="fill: none; stroke: #000000; stroke-width: 0.8; stroke-linejoin: miter; stroke-linecap: square"
           id="path76" />
      </g>
    </g>
  </g>
  <defs
     id="defs76">
    <clipPath
       id="pe1eda29759">
      <rect
         x="72"
         y="51.84"
         width="446.4"
         height="332.64"
         id="rect76" />
    </clipPath>
  </defs>
</svg>
