<?xml version="1.0" encoding="UTF-8"?><svg id="Layer_2" xmlns="http://www.w3.org/2000/svg" viewBox="0 0 129.38 112.11"><defs><style>.cls-1{stroke-miterlimit:8;}.cls-1,.cls-2{fill:none;stroke:#000;stroke-width:.75px;}.cls-3{letter-spacing:-.04em;}.cls-3,.cls-4{fill:#231f20;font-family:TimesNewRomanPSMT, 'Times New Roman';font-size:18px;}.cls-2{stroke-linejoin:round;}.cls-5,.cls-6{fill:#fff;}.cls-6{stroke:#231f20;stroke-miterlimit:10;}</style></defs><g id="Layer_1-2"><path class="cls-2" d="M9.5,35.53c1.54-3.85,3.09-7.65,4.48-6.45,1.39,1.2,3.69,12.1,3.88,13.5.2,1.4-2.79-2.9-2.59-5.15.2-2.25,2.54-9,3.83-8.35,1.29.65,3.74,11.05,3.83,12.25.1,1.2-3.29-3.2-3.19-5.15.1-1.95,2.54-7.2,3.83-6.45,1.29.75,3.83,10.1,3.83,10.95s-3.74-3.75-3.83-5.8c-.1-2.05,1.74-7.4,3.24-6.45,1.49.95,5.63,11.5,5.73,12.25.1.75-4.83-5.6-5.13-7.75-.3-2.15,2.04-5,3.24-5.1,1.2-.1,2.99,3.75,3.83,4.5"/><rect class="cls-5" x="57" y="27.98" width="35.5" height="11.5"/><rect class="cls-1" x="57" y="27.98" width="35.5" height="11.5"/><line class="cls-2" x1="34" y1="32.48" x2="57.15" y2="32.48"/><line class="cls-2" x1="111.5" y1="20.48" x2="111.55" y2="47.48"/><line class="cls-2" x1="116.5" y1="20.48" x2="116.55" y2="47.48"/><line class="cls-2" x1="92.5" y1="32.98" x2="111.05" y2="33.03"/><line class="cls-2" x1="8.9" y1="35.48" x2="1" y2="35.53"/><line class="cls-2" x1="1.15" y1="35.48" x2=".5" y2="70.88"/><line class="cls-2" x1="116.5" y1="32.98" x2="128.7" y2="32.98"/><line class="cls-2" x1="129" y1="32.98" x2="129" y2="70.93"/><line class="cls-2" x1="128.9" y1="70.98" x2="0" y2="71.03"/><text class="cls-4" transform="translate(69.75 24.23)"><tspan x="0" y="0">R</tspan></text><text class="cls-4" transform="translate(107.36 14.96)"><tspan x="0" y="0">C</tspan></text><text class="cls-3" transform="translate(16.5 24.23)"><tspan x="0" y="0">L</tspan></text><circle class="cls-6" cx="64.45" cy="71.03" r="13.38"/><text class="cls-4" transform="translate(59.58 76.16)"><tspan x="0" y="0">~</tspan></text><text class="cls-4" transform="translate(24.3 100.6)"><tspan x="0" y="0">V=V</tspan></text><text class="cls-4" transform="translate(60.45 106.59) scale(.58)"><tspan x="0" y="0">0</tspan></text><text class="cls-4" transform="translate(65.69 100.6)"><tspan x="0" y="0">sin f</tspan></text><text class="cls-4" transform="translate(97.19 106.59) scale(.58)"><tspan x="0" y="0">0</tspan></text><text class="cls-4" transform="translate(102.44 100.6)"><tspan x="0" y="0">t</tspan></text></g></svg>