<?xml version="1.0" encoding="UTF-8"?><svg id="Layer_2" xmlns="http://www.w3.org/2000/svg" viewBox="0 0 127.64 94.04"><defs><style>.cls-1{stroke:#00a651;}.cls-1,.cls-2{fill:none;}.cls-1,.cls-2,.cls-3,.cls-4,.cls-5,.cls-6{stroke-miterlimit:10;}.cls-2,.cls-6{stroke:#231f20;}.cls-3,.cls-7{fill:#00aeef;}.cls-3,.cls-5{stroke:#00aeef;}.cls-8,.cls-9{fill:#00a651;}.cls-10,.cls-11,.cls-6{fill:#231f20;}.cls-11,.cls-7,.cls-9{font-family:TimesNewRomanPSMT, 'Times New Roman';}.cls-11,.cls-9{font-size:14px;}.cls-7{font-size:16px;}.cls-4{fill:#ed1c24;stroke:#ed1c24;}.cls-5{fill:#808285;}</style></defs><g id="Layer_1-2"><line class="cls-5" x1="5.18" y1="58.66" x2="124.22" y2="58.66"/><text class="cls-11" transform="translate(47.57 46.97)"><tspan x="0" y="0">R</tspan></text><line class="cls-3" x1="66.72" y1="5.48" x2="66.72" y2="93.68"/><line class="cls-3" x1="48.67" y1="74.56" x2="94.9" y2="34.16"/><text class="cls-7" transform="translate(115.57 56.23)"><tspan x="0" y="0">x</tspan></text><text class="cls-7" transform="translate(56.59 13.3)"><tspan x="0" y="0">z</tspan></text><text class="cls-7" transform="translate(82.34 35.76)"><tspan x="0" y="0">y</tspan></text><text class="cls-11" transform="translate(97.86 89.75)"><tspan x="0" y="0">m</tspan></text><line class="cls-6" x1="22.27" y1="42.33" x2="112.14" y2="74.98"/><circle class="cls-4" cx="23.52" cy="40.87" r="5.1"/><circle class="cls-4" cx="110.47" cy="75.05" r="5.1"/><line class="cls-10" x1="23.41" y1="42.12" x2="4.33" y2="53.91"/><line class="cls-2" x1="23.41" y1="42.12" x2="10.34" y2="50.2"/><polygon class="cls-10" points="4.33 53.91 10.66 45.22 10.79 49.92 14.93 52.14 4.33 53.91"/><line class="cls-10" x1="110.47" y1="75.12" x2="127.64" y2="60.68"/><line class="cls-2" x1="110.47" y1="75.12" x2="122.23" y2="65.23"/><polygon class="cls-10" points="127.64 60.68 122.64 70.2 121.83 65.57 117.41 63.98 127.64 60.68"/><text class="cls-11" transform="translate(79.75 77.51)"><tspan x="0" y="0">R</tspan></text><text class="cls-11" transform="translate(0 43.76)"><tspan x="0" y="0">v</tspan></text><line class="cls-8" x1="22.97" y1="42.13" x2="49.6" y2="51.81"/><line class="cls-1" x1="22.97" y1="42.13" x2="42.97" y2="49.4"/><polygon class="cls-8" points="49.6 51.81 38.86 52.23 42.47 49.22 41.64 44.59 49.6 51.81"/><line class="cls-8" x1="110.47" y1="74.56" x2="83.84" y2="64.89"/><line class="cls-1" x1="110.47" y1="74.56" x2="90.47" y2="67.3"/><polygon class="cls-8" points="83.84 64.89 94.58 64.46 90.97 67.48 91.8 72.11 83.84 64.89"/><text class="cls-9" transform="translate(27.83 57.45)"><tspan x="0" y="0">F</tspan></text><text class="cls-9" transform="translate(99.72 69.73)"><tspan x="0" y="0">F</tspan></text></g></svg>