<?xml version="1.0" encoding="UTF-8"?><svg id="Layer_2" xmlns="http://www.w3.org/2000/svg" viewBox="0 0 126.02 49.16"><defs><style>.cls-1{fill:none;}.cls-1,.cls-2,.cls-3,.cls-4{stroke:#231f20;stroke-miterlimit:10;}.cls-5,.cls-6,.cls-7,.cls-8{font-family:TimesNewRomanPS-ItalicMT, 'Times New Roman';font-style:italic;}.cls-9,.cls-6,.cls-7,.cls-8,.cls-10,.cls-4{fill:#231f20;}.cls-2{stroke-dasharray:3 3;}.cls-2,.cls-3{fill:#808285;}.cls-6{letter-spacing:-.02em;}.cls-6,.cls-7,.cls-8,.cls-10{font-size:14px;}.cls-7,.cls-11{letter-spacing:-.02em;}.cls-12{font-family:Symbol, Symbol;}</style></defs><g id="Layer_1-2"><line class="cls-4" x1="4.04" y1="22.29" x2="116.34" y2="22.29"/><circle class="cls-4" cx="13.78" cy="23.39" r="3.3"/><circle class="cls-4" cx="107.25" cy="23.39" r="3.3"/><circle class="cls-3" cx="74.19" cy="22.29" r="3.3"/><line class="cls-2" x1="60.19" x2="60.19" y2="32.68"/><text class="cls-8" transform="translate(2.31 11.87)"><tspan x="0" y="0">Q</tspan></text><text class="cls-8" transform="translate(107.25 14.18)"><tspan x="0" y="0">Q</tspan></text><text class="cls-8" transform="translate(66.14 11.87)"><tspan x="0" y="0">m,q</tspan></text><text class="cls-7" transform="translate(107.25 40.24)"><tspan x="0" y="0">L</tspan></text><text class="cls-8" transform="translate(56.89 44.87)"><tspan x="0" y="0">0</tspan></text><text class="cls-8" transform="translate(119.8 23.39)"><tspan x="0" y="0">x</tspan></text><text class="cls-8" transform="translate(0 40.24)"><tspan x="0" y="0">-</tspan><tspan class="cls-11" x="4.66" y="0">L</tspan></text><text class="cls-10" transform="translate(69.44 37.49)"><tspan class="cls-12" x="0" y="0">D</tspan><tspan class="cls-5" x="8.57" y="0">x</tspan></text><line class="cls-1" x1="76.74" y1="22.69" x2="86.15" y2="22.69"/><polygon class="cls-9" points="93.21 22.69 83.26 26.76 85.62 22.69 83.26 18.63 93.21 22.69"/><line class="cls-1" x1="71.86" y1="22.69" x2="51.39" y2="22.69"/><polygon class="cls-9" points="44.33 22.69 54.28 18.63 51.92 22.69 54.28 26.76 44.33 22.69"/><text class="cls-8" transform="translate(90.32 16.34)"><tspan x="0" y="0">F</tspan></text><text class="cls-6" transform="translate(98.87 21) scale(.58)"><tspan x="0" y="0">L</tspan></text><text class="cls-8" transform="translate(35.97 15.34)"><tspan x="0" y="0">F</tspan></text><text class="cls-8" transform="translate(44.53 20) scale(.58)"><tspan x="0" y="0">R</tspan></text></g></svg>