<?xml version="1.0" encoding="UTF-8"?><svg id="Layer_2" xmlns="http://www.w3.org/2000/svg" viewBox="0 0 128.33 52.72"><defs><style>.cls-1{fill:none;}.cls-1,.cls-2,.cls-3,.cls-4{stroke:#231f20;stroke-miterlimit:10;}.cls-5,.cls-6,.cls-4{fill:#231f20;}.cls-2{stroke-dasharray:3 3;}.cls-2,.cls-3{fill:#808285;}.cls-6{font-family:TimesNewRomanPS-ItalicMT, 'Times New Roman';font-size:14px;font-style:italic;}.cls-7{letter-spacing:-.02em;}</style></defs><g id="Layer_1-2"><line class="cls-4" x1="6.36" y1="25.85" x2="118.65" y2="25.85"/><circle class="cls-4" cx="16.1" cy="26.95" r="3.3"/><circle class="cls-4" cx="109.57" cy="26.95" r="3.3"/><circle class="cls-3" cx="62.51" cy="25.85" r="3.3"/><line class="cls-1" x1="23.16" y1="13.84" x2="102.51" y2="13.84"/><polygon class="cls-5" points="16.1 13.84 26.05 17.9 23.69 13.84 26.05 9.77 16.1 13.84"/><polygon class="cls-5" points="109.57 13.84 99.62 17.9 101.98 13.84 99.62 9.77 109.57 13.84"/><line class="cls-2" x1="62.51" y1="3.56" x2="62.51" y2="36.24"/><text class="cls-6" transform="translate(0 42.18)"><tspan x="0" y="0">Q</tspan></text><text class="cls-6" transform="translate(112.87 42.18)"><tspan x="0" y="0">Q</tspan></text><text class="cls-6" transform="translate(65.81 36.24)"><tspan x="0" y="0">m,q</tspan></text><text class="cls-6" transform="translate(67.18 11.64)"><tspan x="0" y="0">2</tspan><tspan class="cls-7" x="7" y="0">L</tspan></text><text class="cls-6" transform="translate(59.21 48.43)"><tspan x="0" y="0">0</tspan></text><text class="cls-6" transform="translate(122.12 26.95)"><tspan x="0" y="0">x</tspan></text></g></svg>