<?xml version="1.0" encoding="UTF-8"?><svg id="Layer_2" xmlns="http://www.w3.org/2000/svg" viewBox="0 0 89.3 66.23"><defs><style>.cls-1,.cls-2,.cls-3,.cls-4{stroke:#231f20;stroke-miterlimit:10;}.cls-1,.cls-3{fill:none;}.cls-5,.cls-6{fill:#231f20;}.cls-6{font-family:TimesNewRomanPS-ItalicMT, 'Times New Roman';font-size:18px;font-style:italic;}.cls-2{fill:#fff;}.cls-3{stroke-dasharray:3.03 3.03;}.cls-4{fill:#808285;}</style></defs><g id="Layer_1-2"><line class="cls-2" x1="54.94" y1="30" x2="60.85" y2="25.6"/><line class="cls-2" x1="60.85" y1="34.4" x2="54.94" y2="30"/><line class="cls-2" x1="54.94" y1="38.8" x2="60.85" y2="34.4"/><line class="cls-2" x1="60.85" y1="43.2" x2="54.94" y2="38.8"/><line class="cls-2" x1="54.94" y1="12.4" x2="60.85" y2="8"/><line class="cls-2" x1="60.85" y1="16.8" x2="54.94" y2="12.4"/><line class="cls-2" x1="54.94" y1="21.2" x2="60.85" y2="16.8"/><line class="cls-2" x1="60.85" y1="25.6" x2="54.94" y2="21.2"/><rect class="cls-4" x=".5" y=".5" width="88.3" height="7.38"/><circle class="cls-4" cx="57.5" cy="47" r="5.34"/><line class="cls-1" x1="1.25" y1="34.4" x2="2.75" y2="34.4"/><line class="cls-3" x1="5.78" y1="34.4" x2="83.14" y2="34.4"/><line class="cls-1" x1="84.66" y1="34.4" x2="86.16" y2="34.4"/><line class="cls-1" x1="32.37" y1="15.06" x2="32.37" y2="27.34"/><polygon class="cls-5" points="32.37 8 28.31 17.95 32.37 15.59 36.44 17.95 32.37 8"/><polygon class="cls-5" points="32.37 34.4 28.31 24.45 32.37 26.81 36.44 24.45 32.37 34.4"/><line class="cls-1" x1="14.54" y1="15.47" x2="14.54" y2="39.94"/><polygon class="cls-5" points="14.54 8.41 10.48 18.36 14.54 15.99 18.61 18.36 14.54 8.41"/><polygon class="cls-5" points="14.54 47 10.48 37.05 14.54 39.41 18.61 37.05 14.54 47"/><line class="cls-1" x1="69.04" y1="21.66" x2="69.04" y2="34.4"/><polygon class="cls-5" points="69.04 14.6 64.97 24.55 69.04 22.19 73.1 24.55 69.04 14.6"/><text class="cls-6" transform="translate(62.84 60.71)"><tspan x="0" y="0">m</tspan></text><text class="cls-6" transform="translate(75.45 30)"><tspan x="0" y="0">z</tspan></text><text class="cls-6" transform="translate(3.88 32)"><tspan x="0" y="0">l</tspan></text><text class="cls-6" transform="translate(36.67 26.8)"><tspan x="0" y="0">l</tspan></text><text class="cls-6" transform="translate(41.67 32.79) scale(.58)"><tspan x="0" y="0">0</tspan></text></g></svg>