<?xml version="1.0" encoding="UTF-8"?><svg id="Layer_2" xmlns="http://www.w3.org/2000/svg" viewBox="0 0 197.55 93.68"><defs><style>.cls-1{fill:none;}.cls-1,.cls-2,.cls-3,.cls-4,.cls-5,.cls-6{stroke-miterlimit:10;}.cls-1,.cls-6{stroke:#231f20;}.cls-2,.cls-7{fill:#00aeef;}.cls-2,.cls-5{stroke:#00aeef;}.cls-8,.cls-9,.cls-10,.cls-11{fill:#231f20;}.cls-3{stroke-width:.75px;}.cls-3,.cls-4{fill:#00a651;stroke:#00a651;}.cls-9{font-size:11px;}.cls-9,.cls-10,.cls-7,.cls-11{font-family:TimesNewRomanPSMT, 'Times New Roman';}.cls-10,.cls-7,.cls-11{font-size:16px;}.cls-5,.cls-6{fill:#808285;}.cls-11{letter-spacing:-.04em;}</style></defs><g id="Layer_1-2"><line class="cls-5" y1="58.66" x2="197.55" y2="58.66"/><line class="cls-6" x1="88.64" y1="85.96" x2="98.77" y2="58.66"/><line class="cls-6" x1="108.9" y1="85.96" x2="98.77" y2="58.66"/><text class="cls-11" transform="translate(37.23 73.58)"><tspan x="0" y="0">L</tspan></text><line class="cls-2" x1="98.77" y1="5.48" x2="98.77" y2="93.68"/><line class="cls-2" x1="80.72" y1="74.56" x2="126.96" y2="34.16"/><text class="cls-7" transform="translate(183.75 68.78)"><tspan x="0" y="0">x</tspan></text><text class="cls-7" transform="translate(88.64 13.3)"><tspan x="0" y="0">z</tspan></text><text class="cls-7" transform="translate(124.3 47.21)"><tspan x="0" y="0">y</tspan></text><line class="cls-4" x1="98.77" y1="58.16" x2="168.46" y2="58.16"/><line class="cls-4" x1="2.6" y1="58.66" x2="98.29" y2="58.66"/><line class="cls-1" x1="98.29" y1="57.18" x2="98.29" y2="24.43"/><polygon class="cls-8" points="98.29 17.37 102.36 27.32 98.29 24.96 94.23 27.32 98.29 17.37"/><text class="cls-10" transform="translate(103.84 20.14)"><tspan x="0" y="0">F</tspan></text><text class="cls-10" transform="translate(112.74 25.47) scale(.58)"><tspan x="0" y="0">p</tspan></text><rect class="cls-3" x="137.11" y="55.06" width="4.87" height="4.87"/><line class="cls-1" x1="139.54" y1="57.99" x2="139.54" y2="73.36"/><polygon class="cls-8" points="139.54 80.42 135.48 70.47 139.54 72.84 143.61 70.47 139.54 80.42"/><text class="cls-9" transform="translate(143.23 51.22)"><tspan x="0" y="0">dm</tspan></text></g></svg>