<?xml version="1.0" encoding="UTF-8"?><svg id="Layer_2" xmlns="http://www.w3.org/2000/svg" viewBox="0 0 198.53 98.59"><defs><style>.cls-1{fill:none;}.cls-1,.cls-2,.cls-3,.cls-4,.cls-5,.cls-6{stroke-miterlimit:10;}.cls-1,.cls-6{stroke:#231f20;}.cls-2,.cls-7{fill:#00aeef;}.cls-2,.cls-5{stroke:#00aeef;}.cls-8,.cls-9,.cls-10,.cls-11{fill:#231f20;}.cls-3{stroke-width:.75px;}.cls-3,.cls-4{fill:#00a651;stroke:#00a651;}.cls-9{font-size:11px;}.cls-9,.cls-10,.cls-7,.cls-11{font-family:TimesNewRomanPSMT, 'Times New Roman';}.cls-10,.cls-7,.cls-11{font-size:16px;}.cls-5,.cls-6{fill:#808285;}.cls-11{letter-spacing:-.04em;}</style></defs><g id="Layer_1-2"><line class="cls-5" x1=".98" y1="58.66" x2="198.53" y2="58.66"/><line class="cls-6" x1="89.63" y1="85.96" x2="99.76" y2="58.66"/><line class="cls-6" x1="109.88" y1="85.96" x2="99.76" y2="58.66"/><text class="cls-11" transform="translate(38.22 93.68)"><tspan x="0" y="0">L</tspan></text><line class="cls-1" x1="4.07" y1="59.15" x2="4.07" y2="74.52"/><polygon class="cls-8" points="4.07 81.58 0 71.63 4.07 73.99 8.13 71.63 4.07 81.58"/><line class="cls-2" x1="99.76" y1="5.48" x2="99.76" y2="93.68"/><line class="cls-2" x1="81.7" y1="74.56" x2="127.94" y2="34.16"/><text class="cls-7" transform="translate(184.73 68.78)"><tspan x="0" y="0">x</tspan></text><text class="cls-7" transform="translate(89.63 13.3)"><tspan x="0" y="0">z</tspan></text><text class="cls-7" transform="translate(125.28 47.21)"><tspan x="0" y="0">y</tspan></text><line class="cls-4" x1="99.76" y1="58.16" x2="169.45" y2="58.16"/><line class="cls-4" x1="3.58" y1="58.66" x2="99.27" y2="58.66"/><line class="cls-1" x1="99.27" y1="57.18" x2="99.27" y2="24.43"/><polygon class="cls-8" points="99.27 17.37 103.34 27.32 99.27 24.96 95.21 27.32 99.27 17.37"/><text class="cls-10" transform="translate(104.82 20.14)"><tspan x="0" y="0">F</tspan></text><text class="cls-10" transform="translate(113.72 25.47) scale(.58)"><tspan x="0" y="0">p</tspan></text><rect class="cls-3" x="1.63" y="55.74" width="4.87" height="4.87"/><rect class="cls-3" x="120.03" y="56.22" width="4.87" height="4.87"/><rect class="cls-3" x="145.04" y="56.22" width="4.87" height="4.87"/><rect class="cls-3" x="169.45" y="55.73" width="4.87" height="4.87"/><rect class="cls-3" x="25.31" y="56.22" width="4.87" height="4.87"/><rect class="cls-3" x="74.13" y="57.05" width="4.87" height="4.87"/><rect class="cls-3" x="48.99" y="56.72" width="4.87" height="4.87"/><line class="cls-1" x1="27.75" y1="59.15" x2="27.75" y2="74.52"/><polygon class="cls-8" points="27.75 81.58 23.68 71.63 27.75 73.99 31.81 71.63 27.75 81.58"/><line class="cls-1" x1="51.43" y1="59.15" x2="51.43" y2="74.52"/><polygon class="cls-8" points="51.43 81.58 47.36 71.63 51.43 73.99 55.49 71.63 51.43 81.58"/><line class="cls-1" x1="76.57" y1="60.14" x2="76.57" y2="75.51"/><polygon class="cls-8" points="76.57 82.57 72.5 72.62 76.57 74.98 80.63 72.62 76.57 82.57"/><line class="cls-1" x1="122.46" y1="61.09" x2="122.46" y2="76.46"/><polygon class="cls-8" points="122.46 83.53 118.4 73.58 122.46 75.94 126.53 73.58 122.46 83.53"/><line class="cls-1" x1="147.6" y1="60.14" x2="147.6" y2="75.51"/><polygon class="cls-8" points="147.6 82.57 143.54 72.62 147.6 74.98 151.67 72.62 147.6 82.57"/><line class="cls-1" x1="171.88" y1="60.14" x2="171.88" y2="75.51"/><polygon class="cls-8" points="171.88 82.57 167.82 72.62 171.88 74.98 175.95 72.62 171.88 82.57"/><text class="cls-9" transform="translate(6.5 52.38)"><tspan x="0" y="0">m</tspan></text><text class="cls-9" transform="translate(31.44 52.38)"><tspan x="0" y="0">m</tspan></text></g></svg>