<?xml version="1.0" encoding="UTF-8"?><svg id="Layer_1" xmlns="http://www.w3.org/2000/svg" viewBox="0 0 96.32 121.36"><defs><style>.cls-1{fill:none;}.cls-1,.cls-2,.cls-3,.cls-4{stroke:#231f20;stroke-miterlimit:10;}.cls-5,.cls-6{fill:#231f20;}.cls-2{stroke-width:3px;}.cls-2,.cls-3{fill:#fff;}.cls-6{font-family:TimesNewRomanPS-ItalicMT, 'Times New Roman';font-size:18px;font-style:italic;}.cls-4{fill:#808285;}</style></defs><line class="cls-2" y1="119.86" x2="96.32" y2="119.86"/><line class="cls-3" x1="53.68" y1="21.65" x2="47.52" y2="15.5"/><line class="cls-3" x1="41.64" y1="82.78" x2="53.86" y2="70.55"/><line class="cls-3" x1="53.86" y1="95" x2="41.64" y2="82.78"/><line class="cls-3" x1="41.64" y1="107.22" x2="53.86" y2="95"/><line class="cls-3" x1="53.86" y1="119.45" x2="41.64" y2="107.22"/><line class="cls-3" x1="41.64" y1="33.88" x2="53.86" y2="21.65"/><line class="cls-3" x1="53.86" y1="46.1" x2="41.64" y2="33.88"/><line class="cls-3" x1="41.64" y1="58.33" x2="53.86" y2="46.1"/><line class="cls-3" x1="53.86" y1="70.55" x2="41.64" y2="58.33"/><circle class="cls-4" cx="48.08" cy="10.24" r="5.34"/><line class="cls-1" x1="16.61" y1="119.86" x2="16.61" y2="77.61"/><polygon class="cls-5" points="16.61 70.55 20.67 80.5 16.61 78.14 12.54 80.5 16.61 70.55"/><text class="cls-6" transform="translate(57.5 14.96)"><tspan x="0" y="0">m</tspan></text><text class="cls-6" transform="translate(55.48 63.05)"><tspan x="0" y="0">k, l</tspan></text><text class="cls-6" transform="translate(77.47 69.04) scale(.58)"><tspan x="0" y="0">0</tspan></text><text class="cls-6" transform="translate(1.09 93.61)"><tspan x="0" y="0">z</tspan></text></svg>