<?xml version="1.0" encoding="UTF-8"?><svg id="Layer_1" xmlns="http://www.w3.org/2000/svg" viewBox="0 0 96.32 146.15"><defs><style>.cls-1{fill:none;}.cls-1,.cls-2,.cls-3,.cls-4{stroke:#231f20;stroke-miterlimit:10;}.cls-5,.cls-6{fill:#231f20;}.cls-2{stroke-width:3px;}.cls-2,.cls-3{fill:#fff;}.cls-6{font-family:TimesNewRomanPS-ItalicMT, 'Times New Roman';font-size:18px;font-style:italic;}.cls-4{fill:#808285;}</style></defs><line class="cls-2" y1="144.65" x2="96.32" y2="144.65"/><line class="cls-3" x1="53.68" y1="46.44" x2="47.52" y2="40.28"/><line class="cls-3" x1="41.64" y1="107.56" x2="53.86" y2="95.34"/><line class="cls-3" x1="53.86" y1="119.79" x2="41.64" y2="107.56"/><line class="cls-3" x1="41.64" y1="132.01" x2="53.86" y2="119.79"/><line class="cls-3" x1="53.86" y1="144.23" x2="41.64" y2="132.01"/><line class="cls-3" x1="41.64" y1="58.66" x2="53.86" y2="46.44"/><line class="cls-3" x1="53.86" y1="70.89" x2="41.64" y2="58.66"/><line class="cls-3" x1="41.64" y1="83.11" x2="53.86" y2="70.89"/><line class="cls-3" x1="53.86" y1="95.34" x2="41.64" y2="83.11"/><circle class="cls-4" cx="48.08" cy="35.02" r="5.34"/><line class="cls-1" x1="16.61" y1="144.65" x2="16.61" y2="102.4"/><polygon class="cls-5" points="16.61 95.34 20.67 105.29 16.61 102.93 12.54 105.29 16.61 95.34"/><text class="cls-6" transform="translate(57.5 39.74)"><tspan x="0" y="0">m</tspan></text><text class="cls-6" transform="translate(55.48 116.9)"><tspan x="0" y="0">k</tspan></text><text class="cls-6" transform="translate(1.09 118.39)"><tspan x="0" y="0">z</tspan></text><line class="cls-1" x1="29.09" y1="137.59" x2="29.09" y2="42.09"/><polygon class="cls-5" points="29.09 144.65 33.16 134.7 29.09 137.06 25.03 134.7 29.09 144.65"/><polygon class="cls-5" points="29.09 35.02 33.16 44.97 29.09 42.61 25.03 44.97 29.09 35.02"/><text class="cls-6" transform="translate(19.12 72.86)"><tspan x="0" y="0">l</tspan></text><line class="cls-1" x1="48.08" y1="33.73" x2="48.08" y2="76.54"/><polygon class="cls-5" points="48.08 83.6 44.02 73.65 48.08 76.01 52.15 73.65 48.08 83.6"/><text class="cls-6" transform="translate(53.86 83.6)"><tspan x="0" y="0">-mg</tspan></text><line class="cls-1" x1="48.08" y1="33.69" x2="48.08" y2="7.06"/><polygon class="cls-5" points="48.08 0 52.15 9.95 48.08 7.59 44.02 9.95 48.08 0"/><text class="cls-6" transform="translate(57.5 16.84)"><tspan x="0" y="0">F</tspan></text><text class="cls-6" transform="translate(68.49 22.84) scale(.58)"><tspan x="0" y="0">v</tspan></text></svg>